<svg version="1.1" id="Layer_1" xmlns="http://www.w3.org/2000/svg" x="0px" y="0px"
	 viewBox="0 0 496 496" style="enable-background:new 0 0 496 496;" xml:space="preserve">
<path d="M443.4,117c7.7-7.3,12.6-17.5,12.6-29V24c0-4.4-3.6-8-8-8h-48c-13.2,0-24,10.8-24,24v48c0,11.4,4.9,21.7,12.6,29
	c-30.6,11.2-52.6,40.6-52.6,75v40h-8v-40c0-10-1.9-19.6-5.3-28.4l3.4-1.7c16-8,25.9-24,25.9-41.9c0-4.4-3.6-8-8-8
	c-13.2,0-24-10.8-24-24V72c0-39.7-32.3-72-72-72s-72,32.3-72,72v16c0,13.2-10.8,24-24,24c-4.4,0-8,3.6-8,8
	c0,17.8,9.9,33.9,25.9,41.9l3.4,1.7c-3.4,8.8-5.3,18.4-5.3,28.4v40h-8v-40c0-34.5-21.9-63.8-52.6-75c7.7-7.3,12.6-17.5,12.6-29V24
	c0-4.4-3.6-8-8-8H64c-13.2,0-24,10.8-24,24v48c0,11.4,4.9,21.7,12.6,29C21.9,128.2,0,157.5,0,192v96c0,4.4,3.6,8,8,8h8v136H8
	c-4.4,0-8,3.6-8,8v48c0,4.4,3.6,8,8,8h480c4.4,0,8-3.6,8-8v-48c0-4.4-3.6-8-8-8h-8V296h8c4.4,0,8-3.6,8-8v-96
	C496,157.5,474.1,128.2,443.4,117z M480,192v40h-41.4l38.2-60C478.8,178.3,480,185,480,192z M400,32h40v16h-48v-8
	C392,35.6,395.6,32,400,32z M392,88V64h48v24c0,13.2-10.8,24-24,24S392,101.2,392,88z M442.8,134L416,176.9L389.2,134
	c8.2-3.8,17.2-6,26.8-6S434.7,130.2,442.8,134z M352,192c0-20,9.2-37.8,23.6-49.6l33.6,53.8c1.5,2.3,4,3.8,6.8,3.8s5.3-1.4,6.8-3.8
	l33.6-53.8c4.6,3.7,8.6,8.1,12,12.9L419.6,232H352V192z M312,192v40h-41.4l38.2-60C310.8,178.3,312,185,312,192z M177,147.6
	c-8.4-4.2-14.2-11.7-16.2-20.6c17.8-4,31.2-20,31.2-39V72c0-30.9,25.1-56,56-56s56,25.1,56,56v16c0,19,13.4,35,31.2,39
	c-2,8.8-7.9,16.4-16.2,20.6l-3.4,1.7c-9.4-14.8-23.4-26.2-40.1-32.3c7.7-7.3,12.6-17.5,12.6-29V56c0-4.4-3.6-8-8-8h-8
	c-8.8,0-16-7.2-16-16c0-4.4-3.6-8-8-8s-8,3.6-8,8c0,8.8-7.2,16-16,16h-8c-4.4,0-8,3.6-8,8v32c0,11.4,4.9,21.7,12.6,29
	c-16.7,6.1-30.7,17.6-40.1,32.3L177,147.6z M224,88V64c9.5,0,18.1-4.2,24-10.9c5.9,6.7,14.5,10.9,24,10.9v24c0,13.2-10.8,24-24,24
	S224,101.2,224,88z M274.8,134L248,176.9L221.2,134c8.2-3.8,17.2-6,26.8-6S266.7,130.2,274.8,134z M184,192c0-20,9.2-37.8,23.6-49.6
	l33.6,53.8c1.5,2.3,4,3.8,6.8,3.8s5.3-1.4,6.8-3.8l33.6-53.8c4.6,3.7,8.6,8.1,12,12.9L251.6,232H184V192z M144,192v40h-41.4l38.2-60
	C142.8,178.3,144,185,144,192z M64,32h40v16H56v-8C56,35.6,59.6,32,64,32z M56,88V64h48v24c0,13.2-10.8,24-24,24S56,101.2,56,88z
	 M106.8,134L80,176.9L53.2,134c8.2-3.8,17.2-6,26.8-6S98.7,130.2,106.8,134z M16,192c0-20,9.2-37.8,23.6-49.6l33.6,53.8
	c1.5,2.3,4,3.8,6.8,3.8s5.3-1.4,6.8-3.8l33.6-53.8c4.6,3.7,8.6,8.1,12,12.9L83.6,232H16V192z M480,480H16v-32h464V480z M464,432H32
	V296h432V432z M480,280H16v-32h464V280z"/>
<g>
	<g>
		<path d="M214.1,356.4c0-2.7,0.2-6.9,0.4-9.5h-0.3c-1.2,2.4-2.4,4.7-3.7,7.1l-8.3,12.8h25.5v6.4h-33.7v-5.6l18.1-28.4h9.8V385h-7.8
			V356.4z"/>
		<path d="M232.4,361.9c0-15.5,6-23.6,15.6-23.6s15.6,8.2,15.6,23.6c0,15.5-6,24-15.6,24S232.4,377.4,232.4,361.9z M255.6,361.9
			c0-13-3.2-17.1-7.6-17.1s-7.6,4.1-7.6,17.1s3.2,17.5,7.6,17.5S255.6,374.9,255.6,361.9z"/>
		<path d="M288,356.4c0-2.7,0.2-6.9,0.4-9.5h-0.3c-1.2,2.4-2.4,4.7-3.7,7.1l-8.3,12.8h25.5v6.4h-33.7v-5.6l18.1-28.4h9.8V385H288
			V356.4z"/>
	</g>
</g>
</svg>
